<?xml version="1.0" encoding="UTF-8"?>
<!-- Generator: visioncortex VTracer 0.6.3 -->
<svg version="1.1" xmlns="http://www.w3.org/2000/svg" width="1280" height="409">
<path d="M0 0 C28.71 0 57.42 0 87 0 C89.51 4.19 90.92 7.37 92.38 11.94 C92.81 13.28 93.24 14.61 93.68 15.95 C93.9 16.63 94.12 17.3 94.34 18 C96.83 25.58 99.55 33.04 102.69 40.38 C104.06 43.61 105.28 46.7 106.06 50.12 C107.03 54.11 108.43 57.64 109.99 61.42 C111.31 64.79 112.28 68.22 113.29 71.7 C114.28 74.9 115.66 77.92 117 81 C117.44 82.28 117.87 83.57 118.29 84.86 C120.37 91.18 122.63 97.43 124.88 103.69 C125.73 106.07 126.58 108.45 127.43 110.82 C128.73 114.46 130.03 118.09 131.34 121.73 C133.97 129.06 136.48 136.41 138.89 143.82 C139.78 146.37 140.79 148.6 142 151 C142.45 152.94 142.91 154.89 143.36 156.83 C144.43 160.47 146.21 163.66 148 167 C148.18 166.36 148.36 165.72 148.55 165.06 C150.06 159.85 151.86 154.99 154 150 C154.47 148.49 154.91 146.98 155.35 145.46 C156.98 139.93 158.93 134.53 160.94 129.12 C163.45 122.29 165.88 115.45 168.14 108.53 C169.28 105.18 170.6 101.91 171.97 98.64 C173.14 95.64 174.14 92.61 175.15 89.55 C177.05 83.86 179.06 78.2 181.04 72.53 C182.6 68.06 184.14 63.59 185.62 59.09 C186.65 56.01 187.75 53 189 50 C190.57 46.13 191.94 42.25 193.22 38.28 C194.06 35.83 195.01 33.45 196 31.06 C197.71 26.87 199.03 22.65 200.29 18.3 C201.28 15.1 202.66 12.08 204 9 C204.99 6.03 205.98 3.06 207 0 C235.71 0 264.42 0 294 0 C294 85.47 294 170.94 294 259 C274.86 259 255.72 259 236 259 C235.67 195.31 235.34 131.62 235 66 C231.77 74 231.77 74 229.55 81.96 C228.92 84.29 228.05 86.45 227.12 88.69 C225.04 93.71 223.49 98.83 221.94 104.03 C221.21 106.34 220.43 108.49 219.44 110.69 C218.29 113.34 217.43 115.79 216.63 118.55 C215.04 123.93 213.29 129.25 211.5 134.56 C211.2 135.44 210.91 136.32 210.61 137.23 C210.02 138.98 209.43 140.73 208.85 142.47 C208.29 144.13 207.74 145.78 207.2 147.44 C205.77 151.76 204.25 156.02 202.56 160.25 C200.39 165.81 198.6 171.43 196.9 177.15 C195.83 180.54 194.4 183.73 193 187 C191.97 190.19 191 193.39 190.04 196.59 C187.94 203.47 185.74 210.29 183 216.94 C181.53 220.54 180.3 224.15 179.19 227.88 C177.4 233.83 175.42 239.7 173.38 245.56 C173.07 246.43 172.77 247.3 172.46 248.2 C172.17 249.02 171.88 249.84 171.59 250.69 C171.2 251.79 171.2 251.79 170.81 252.92 C170 255 169 257 168 259 C153.48 259 138.96 259 124 259 C116.41 239.49 116.41 239.49 114.09 231.59 C112.67 226.93 111.12 222.31 109.56 217.69 C107.48 211.48 105.43 205.26 103.5 199 C100.77 190.14 97.81 181.36 94.86 172.58 C93.55 168.66 92.24 164.73 90.94 160.81 C90.45 159.36 89.97 157.9 89.48 156.45 C88.44 153.32 87.4 150.19 86.36 147.05 C86.09 146.24 85.82 145.43 85.55 144.59 C85.03 143.03 84.52 141.48 84 139.92 C83.03 136.99 82.04 134.11 80.88 131.25 C80.03 129.09 79.54 127.09 79.12 124.81 C78.22 120.53 76.74 116.72 75.06 112.69 C73.54 108.82 72.39 104.87 71.2 100.89 C68.66 92.53 65.78 84.28 63 76 C61.68 72.04 60.36 68.08 59 64 C58.67 128.35 58.34 192.7 58 259 C38.86 259 19.72 259 0 259 C0 173.53 0 88.06 0 0 Z " fill="#000100" transform="translate(73,63)"/>
<path d="M0 0 C28.71 0 57.42 0 87 0 C89.26 3.76 90.43 5.88 91.5 9.88 C92.35 12.89 93.26 15.6 94.5 18.5 C96.06 22.15 97.15 25.78 98.25 29.58 C98.91 31.7 99.66 33.67 100.56 35.69 C101.75 38.41 102.58 41 103.34 43.86 C104.23 46.74 105.34 49.51 106.44 52.31 C108.31 57.1 109.91 61.88 111.32 66.82 C112.09 69.29 113.12 71.61 114.18 73.96 C116.14 78.84 117.48 83.97 119 89 C120.58 94.11 122.4 99.02 124.5 103.94 C126.37 108.36 127.89 112.73 129.2 117.34 C130.48 121.61 132.03 125.77 133.55 129.96 C134.93 133.78 136.26 137.62 137.6 141.46 C140.58 150.04 143.66 158.56 147 167 C149.08 162.04 151.03 157.12 152.5 151.94 C153.67 147.86 155.19 144.12 157.04 140.3 C158.02 137.96 158.68 135.6 159.35 133.15 C160.79 128.36 162.6 123.69 164.31 119 C167.97 108.93 171.51 98.84 174.75 88.62 C176.26 83.95 178.02 79.42 179.88 74.88 C182.94 67.35 185.51 59.73 188 52 C189.78 46.49 191.71 41.1 193.94 35.75 C195.12 32.69 196.15 29.59 197.18 26.48 C198.6 22.2 200.08 17.94 201.56 13.69 C201.87 12.81 202.17 11.93 202.48 11.02 C202.78 10.17 203.07 9.32 203.38 8.45 C203.64 7.69 203.91 6.93 204.18 6.15 C204.98 4.04 205.99 2.02 207 0 C235.71 0 264.42 0 294 0 C294 85.47 294 170.94 294 259 C274.86 259 255.72 259 236 259 C235.67 194.65 235.34 130.3 235 64 C233.02 69.94 231.04 75.88 229 82 C225.87 90.81 225.87 90.81 224.38 95.01 C222.72 99.73 221.3 104.5 219.86 109.29 C218.8 112.63 217.38 115.78 216 119 C214.99 122.12 214.05 125.26 213.1 128.39 C210.38 137.3 207.44 146.08 203.89 154.7 C202.69 157.8 201.77 160.97 200.84 164.17 C198.54 171.92 196.03 179.65 192.94 187.12 C191.52 190.56 190.36 194 189.31 197.56 C187.3 204.3 184.91 210.89 182.5 217.5 C179.43 225.95 176.54 234.38 174 243 C173.49 244.63 172.97 246.25 172.44 247.88 C172.23 248.51 172.02 249.15 171.81 249.8 C170.66 252.92 169.31 255.95 168 259 C153.15 259 138.3 259 123 259 C113.06 229.19 113.06 229.19 111.61 224.81 C110.4 221.21 109.2 217.6 107.99 214 C104.89 204.75 101.8 195.51 98.98 186.18 C97.02 179.85 94.88 173.57 92.77 167.29 C91.57 163.72 90.38 160.14 89.19 156.56 C87.38 151.15 85.58 145.73 83.76 140.32 C83.37 139.14 82.97 137.97 82.57 136.75 C81.8 134.44 81.02 132.14 80.25 129.83 C78.04 123.24 75.94 116.62 73.92 109.97 C72.71 106.06 71.43 102.19 70.12 98.31 C69.61 96.78 69.1 95.26 68.59 93.73 C68.33 92.95 68.07 92.18 67.8 91.39 C66.98 88.93 66.16 86.48 65.35 84.02 C65.08 83.21 64.81 82.4 64.54 81.57 C64.03 80.02 63.51 78.47 63 76.93 C62.65 75.87 62.65 75.87 62.3 74.79 C62.09 74.18 61.89 73.57 61.68 72.93 C60.86 70.6 59.92 68.3 59 66 C58.67 129.69 58.34 193.38 58 259 C38.86 259 19.72 259 0 259 C0 173.53 0 88.06 0 0 Z " fill="#000100" transform="translate(419,63)"/>
<path d="M0 0 C134.5 0 134.5 0 151 7 C152.64 7.53 154.29 8.06 155.94 8.56 C159.14 9.6 161.37 10.86 164 13 C166.15 13.71 166.15 13.71 168 14 C168 14.66 168 15.32 168 16 C168.58 16.27 169.16 16.53 169.76 16.8 C182.44 23.58 190.95 37.18 195.25 50.44 C200.06 67.53 200.87 84.82 196 102 C195.58 103.54 195.58 103.54 195.16 105.11 C192.59 113.65 188.71 122.88 182 129 C181.2 129.8 180.39 130.61 179.56 131.44 C178.72 132.28 177.87 133.13 177 134 C176.34 134.7 175.68 135.4 175 136.12 C172.81 138.18 170.6 139.51 168 141 C166.67 141.95 166.67 141.95 165.31 142.92 C161.73 145.17 158.38 146.48 154.38 147.75 C153.72 147.97 153.07 148.19 152.39 148.42 C149.05 149.51 146.55 150 143 150 C143.5 150.78 143.99 151.57 144.5 152.38 C146 155 146 155 146 157 C146.66 157 147.32 157 148 157 C148.41 157.77 148.82 158.54 149.24 159.34 C149.78 160.34 150.32 161.34 150.88 162.38 C151.41 163.37 151.94 164.37 152.49 165.4 C153.88 168.05 153.88 168.05 156 170 C156.68 171.66 157.34 173.33 158 175 C160.48 179.53 163.08 183.89 166.38 187.88 C168 190 168 190 168 194 C168.66 194 169.32 194 170 194 C173.08 197.87 175.53 202.01 176 207 C176.66 207 177.32 207 178 207 C178.4 207.75 178.8 208.5 179.21 209.27 C179.74 210.25 180.27 211.24 180.81 212.25 C181.33 213.22 181.86 214.2 182.39 215.2 C183.79 217.64 185.3 219.77 187 222 C187.75 223.3 188.48 224.61 189.19 225.94 C193.9 234.55 199.08 242.91 204.77 250.9 C206 253 206 253 208 259 C185.23 259 162.46 259 139 259 C132.21 246.78 125.68 234.42 119.38 221.94 C119.03 221.27 118.69 220.59 118.34 219.9 C116 215.24 116 215.24 116 213 C115.34 213 114.68 213 114 213 C113.75 212.47 113.51 211.93 113.25 211.38 C112.11 208.92 110.96 206.46 109.81 204 C109.43 203.16 109.04 202.32 108.64 201.46 C106.4 196.68 103.99 192.17 101.08 187.76 C99.98 185.97 99.17 184.2 98.38 182.25 C97.19 179.09 97.19 179.09 95.5 177 C93.42 174.23 92.37 171.19 91 168 C89.02 164.37 87.04 160.74 85 157 C75.76 156.67 66.52 156.34 57 156 C57 189.99 57 223.98 57 259 C38.19 259 19.38 259 0 259 C0 173.53 0 88.06 0 0 Z M57 31 C57 62.02 57 93.04 57 125 C62.8 122.68 68.37 120.02 74 117.31 C75.69 116.5 75.69 116.5 77.42 115.67 C85.07 111.98 92.57 108.12 100 104 C102.62 102.57 105.25 101.16 107.88 99.75 C108.48 99.42 109.09 99.09 109.72 98.75 C112.69 97.15 115.68 95.67 118.79 94.36 C121.95 93.11 121.95 93.11 124.5 91.5 C127.55 89.67 130.74 88.4 134 87 C134.83 86.5 135.65 86.01 136.5 85.5 C139.55 83.67 142.72 82.37 146 81 C147.34 80.35 148.68 79.69 150 79 C150 78.01 150 77.02 150 76 C148.51 75.38 148.51 75.38 146.99 74.74 C142.97 73.02 139.08 71.1 135.19 69.12 C133.77 68.41 132.34 67.69 130.92 66.98 C130.24 66.63 129.56 66.29 128.87 65.94 C126.56 64.78 124.25 63.64 121.94 62.5 C118.6 60.84 115.31 59.09 112.03 57.31 C104.45 53.21 96.74 49.46 88.93 45.8 C82.36 42.7 75.94 39.4 69.59 35.87 C68.96 35.52 68.32 35.17 67.66 34.81 C67.12 34.51 66.58 34.21 66.02 33.89 C63.13 32.62 60.04 31.87 57 31 Z " fill="#000100" transform="translate(765,63)"/>
<path d="M0 0 C9.28 -0.21 18.57 -0.37 27.85 -0.47 C32.16 -0.51 36.47 -0.58 40.79 -0.68 C44.95 -0.78 49.11 -0.83 53.27 -0.85 C54.86 -0.87 56.45 -0.9 58.03 -0.95 C70.44 -1.32 70.44 -1.32 74.27 1.92 C75.85 4.23 76.95 6.41 78 9 C78.7 10.38 79.41 11.75 80.12 13.12 C80.44 13.78 80.75 14.43 81.07 15.1 C83.59 20.26 86.65 25.1 89.75 29.91 C91.32 32.54 92.63 35.26 94 38 C95.23 40.22 96.49 42.42 97.75 44.62 C98.1 45.23 98.44 45.83 98.8 46.46 C101.65 51.42 104.54 56.35 107.46 61.28 C109.08 64.14 110.54 67.06 112 70 C113.29 72.3 114.6 74.57 115.91 76.85 C116.95 78.91 117.54 80.75 118 83 C118.66 83 119.32 83 120 83 C120.84 84.62 121.67 86.25 122.5 87.88 C123.2 89.23 123.2 89.23 123.91 90.62 C125 93 125 93 125 95 C125.99 95 126.98 95 128 95 C128.16 93.9 128.16 93.9 128.33 92.77 C129.04 89.83 130.01 88.14 131.75 85.69 C132.29 84.91 132.83 84.13 133.39 83.32 C133.92 82.56 134.45 81.79 135 81 C138.6 75.48 141.85 69.79 145 64 C145.66 64 146.32 64 147 64 C147.11 63.28 147.22 62.55 147.33 61.8 C148.05 58.79 149.12 56.75 150.75 54.12 C151.29 53.25 151.83 52.38 152.39 51.48 C153.73 49.42 155.11 47.42 156.56 45.44 C159.44 41.5 161.68 37.28 164 33 C165.51 30.24 167.03 27.5 168.56 24.75 C168.94 24.06 169.31 23.38 169.7 22.67 C171.85 18.81 174.19 15.43 177 12 C177.78 9.82 177.78 9.82 178 8 C178.66 8 179.32 8 180 8 C180.29 7.24 180.58 6.47 180.88 5.69 C182 3 182 3 184 0 C186.86 -0.36 186.86 -0.36 190.56 -0.34 C191.57 -0.34 191.57 -0.34 192.6 -0.34 C194.83 -0.34 197.06 -0.32 199.29 -0.29 C200.83 -0.29 202.38 -0.28 203.92 -0.28 C207.99 -0.27 212.06 -0.24 216.12 -0.21 C220.27 -0.18 224.42 -0.16 228.57 -0.15 C236.71 -0.11 244.86 -0.06 253 0 C251.92 1.9 250.84 3.79 249.75 5.69 C249.15 6.74 248.54 7.8 247.92 8.89 C246.13 11.8 244.17 14.36 242 17 C241.26 18.24 241.26 18.24 240.5 19.5 C239 22 239 22 237.06 24.38 C235.17 26.78 233.69 29.22 232.21 31.89 C230.65 34.61 229.03 37.27 227.38 39.94 C226.78 40.9 226.19 41.85 225.59 42.84 C225.06 43.55 224.54 44.27 224 45 C223.34 45 222.68 45 222 45 C221.92 45.72 221.84 46.44 221.75 47.19 C220.84 50.61 219.26 52.29 217 55 C216.29 56.2 215.6 57.4 214.94 58.62 C213.36 61.38 212.16 62.84 210 65 C208.81 67.6 208.81 67.6 208 70 C207.34 70 206.68 70 206 70 C205.73 70.73 205.46 71.46 205.18 72.22 C204.04 74.92 202.73 77.1 201.06 79.5 C199.5 81.78 197.98 84.04 196.56 86.41 C194.18 90.37 191.54 94.15 188.94 97.96 C187.07 100.9 185.5 103.86 184 107 C183.34 107 182.68 107 182 107 C181.66 107.99 181.66 107.99 181.31 109 C179.61 112.89 177.6 116.64 175 120 C174.34 120 173.68 120 173 120 C172.79 120.8 172.59 121.61 172.38 122.44 C170.16 128.18 166.63 133 162.75 137.75 C160.94 140.08 159.95 142.22 159 145 C158.34 145 157.68 145 157 145 C156.05 147.84 155.87 149.63 155.84 152.57 C155.83 153.51 155.82 154.45 155.81 155.42 C155.81 156.44 155.8 157.47 155.79 158.53 C155.78 159.61 155.77 160.7 155.76 161.81 C155.73 165.4 155.71 168.99 155.68 172.57 C155.66 175.06 155.64 177.54 155.62 180.03 C155.57 185.9 155.53 191.78 155.48 197.65 C155.42 206.17 155.35 214.69 155.28 223.21 C155.18 235.14 155.09 247.07 155 259 C135.86 259 116.72 259 97 259 C97 250.94 96.99 242.87 96.99 234.56 C96.98 229.45 96.96 224.34 96.94 219.22 C96.9 211.11 96.87 203 96.88 194.88 C96.89 188.34 96.86 181.8 96.82 175.26 C96.81 172.76 96.81 170.27 96.82 167.77 C96.83 164.27 96.81 160.78 96.77 157.28 C96.79 155.74 96.79 155.74 96.81 154.17 C96.69 146.98 94.79 143.26 90 138 C87.01 134.21 84.45 130.95 84 126 C83.34 126 82.68 126 82 126 C80.38 123.73 80.38 123.73 78.56 120.75 C76.5 117.38 74.38 114.16 72 111 C71.07 109.35 70.15 107.69 69.22 106.04 C67.28 102.8 65.06 99.77 62.87 96.69 C59.76 92.22 56.87 87.62 54 83 C53.16 81.66 53.16 81.66 52.3 80.3 C51 78 51 78 51 76 C50.34 76 49.68 76 49 76 C47.6 73.99 47.6 73.99 46.06 71.31 C45.56 70.44 45.05 69.57 44.54 68.68 C44.03 67.79 43.52 66.91 43 66 C41.01 62.6 38.9 59.34 36.62 56.12 C36.01 55.26 35.4 54.39 34.77 53.5 C33.27 51.39 31.76 49.29 30.25 47.19 C28.36 44.51 26.68 41.82 25 39 C23.84 37.16 22.67 35.33 21.5 33.5 C15 23.35 15 23.35 15 21 C14.34 21 13.68 21 13 21 C11.65 19.05 10.4 17.04 9.19 15 C8.52 13.89 7.85 12.77 7.17 11.62 C6.82 11.04 6.48 10.46 6.12 9.87 C4.89 7.82 3.63 5.8 2.36 3.77 C1.92 3.06 1.48 2.35 1.02 1.62 C0.68 1.09 0.35 0.55 0 0 Z " fill="#000100" transform="translate(955,63)"/>
</svg>
